<?xml version="1.0" encoding="UTF-8"?>
<svg width="20px" height="22px" viewBox="0 0 20 22" version="1.1" xmlns="http://www.w3.org/2000/svg" xmlns:xlink="http://www.w3.org/1999/xlink">
    <!-- Generator: Sketch 52.1 (67048) - http://www.bohemiancoding.com/sketch -->
    <title>Icons/Share Android</title>
    <desc>Created with Sketch.</desc>
    <defs>
        <path d="M18.257284,16.2053824 C17.5143632,16.2102971 16.7971313,16.4778655 16.2325154,16.9607365 L8.75241141,12.5964682 C8.83644808,12.2093109 8.83644808,11.8086303 8.75241141,11.421473 L16.2325154,7.05720472 C17.3637547,8.00776222 19.0039378,8.04339638 20.1753934,7.14286659 C21.3468489,6.2423368 21.7341319,4.64813403 21.106393,3.31052209 C20.4786541,1.97291014 19.0049281,1.25207567 17.5636657,1.57768982 C16.1224032,1.90330396 15.1017017,3.18768667 15.1099752,4.66525002 C15.1096224,4.8627841 15.1307283,5.05977207 15.1729214,5.25274767 L7.69281744,9.6170159 C6.42004153,8.52858638 4.51782691,8.62748265 3.36478296,9.8420307 C2.21173901,11.0565788 2.21173901,12.9613624 3.36478296,14.1759105 C4.51782691,15.3904585 6.42004153,15.4893548 7.69281744,14.4009253 L15.1729214,18.7651935 C15.1307283,18.9581691 15.1096224,19.1551571 15.1099752,19.3526912 C15.1099752,21.0909018 16.5190734,22.5 18.257284,22.5 C19.9954947,22.5 21.4045929,21.0909018 21.4045929,19.3526912 C21.4045929,17.6144805 19.9954947,16.2053824 18.257284,16.2053824 Z" id="path-1"></path>
    </defs>
    <g id="FACEBOOK-LIKE-BOX" stroke="none" stroke-width="1" fill="none" fill-rule="evenodd">
        <g id="Rending-follow-us-v4" transform="translate(-479.000000, -1116.000000)">
            <g id="Icons/Share-Android" transform="translate(477.000000, 1115.000000)">
                <mask id="mask-2" fill="white">
                    <use xlink:href="#path-1"></use>
                </mask>
                <g id="share-android" fill-rule="nonzero"></g>
                <g id="Colors/Secondary/Light" mask="url(#mask-2)" fill="#C1C9E0" fill-rule="evenodd">
                    <polygon id="Rectangle-7-Copy-28" points="0 0 24 0 24 24 0 24"></polygon>
                </g>
            </g>
        </g>
    </g>
</svg>